<?xml version="1.0" encoding="UTF-8"?>
<svg width="99px" height="99px" viewBox="0 0 99 99" version="1.1" xmlns="http://www.w3.org/2000/svg" xmlns:xlink="http://www.w3.org/1999/xlink">
    <!-- Generator: Sketch 64 (93537) - https://sketch.com -->
    <title>icon_aktuelles</title>
    <desc>Created with Sketch.</desc>
    <g id="Page-1" stroke="none" stroke-width="1" fill="none" fill-rule="evenodd">
        <g id="icon_aktuelles">
            <circle id="Oval" fill="#1CBD9B" cx="49.5" cy="49.5" r="49.5"></circle>
            <path d="M97.99,45.692 C97.1757571,44.1091117 95.9081059,42.8049037 94.349,41.946 L94.365,41.936 L46.687,17 L0.004,40.998 L0.153,41.082 L47.504,65.918 C51.899,68.223 53.608,73.684 51.324,78.115 C50.602959,79.5102634 49.5281012,80.6916758 48.207,81.541 L48.145,81.622 L48.104,81.652 L95.885,56.673 C98.965,54.007 99.945,49.476 97.99,45.692 L97.99,45.692 Z" id="Path" fill="#EBECED" fill-rule="nonzero"></path>
            <path d="M47.504,65.918 L0,41.001 L0,61.391 L39.235,81.971 C40.5077019,82.6404802 41.9239553,82.9908545 43.362,82.992 C46.7201923,82.9886464 49.7941744,81.1064984 51.324,78.117 C53.607,73.684 51.898,68.223 47.504,65.918 L47.504,65.918 Z" id="Path" fill="#BDC3C7" fill-rule="nonzero"></path>
            <path d="M18.37,39.306 L22.944,41.611 L15.256,40.875 L12.869,42.077 L21.139,46.241 L23.541,45.031 L19.002,42.744 L26.639,43.473 L29.047,42.26 L20.777,38.096 L18.37,39.306 L18.37,39.306 Z M31.428,39.173 L29.797,38.353 L33.774,36.351 L32.086,35.5 L28.109,37.502 L26.797,36.841 L31.082,34.683 L29.316,33.793 L22.468,37.241 L30.738,41.405 L37.711,37.893 L35.838,36.951 L31.428,39.173 Z M39.122,28.854 L42.87,31.625 L36.964,29.942 L34.546,31.16 L37.898,34.136 L32.395,32.244 L29.968,33.466 L40.075,36.704 L42.581,35.442 L38.819,32.092 L45.475,33.984 L47.981,32.721 L41.536,27.639 L39.122,28.854 L39.122,28.854 Z M56.032,27.435 C55.878,27.062 55.536,26.743 55.005,26.476 C54.555,26.247 54.036,26.099 53.452,26.026 C52.866,25.953 52.21,25.976 51.478,26.095 C50.748,26.214 49.706,26.493 48.348,26.935 C47.803,27.116 47.414,27.208 47.186,27.214 C46.957,27.224 46.777,27.194 46.645,27.128 C46.463,27.037 46.386,26.923 46.411,26.783 C46.436,26.643 46.598,26.499 46.893,26.348 C47.2356708,26.1712695 47.6119771,26.0693532 47.997,26.049 C48.37,26.03 48.775,26.1 49.212,26.254 L51.481,24.971 C50.518,24.592 49.564,24.444 48.619,24.526 C47.67,24.607 46.668,24.914 45.611,25.446 C44.749,25.88 44.178,26.275 43.901,26.634 C43.624,26.991 43.549,27.328 43.681,27.642 C43.813,27.956 44.09,28.222 44.516,28.435 C45.162,28.761 45.935,28.909 46.832,28.875 C47.728,28.845 48.861,28.61 50.233,28.173 C51.067,27.904 51.664,27.765 52.02,27.757 C52.376,27.746 52.666,27.796 52.876,27.903 C53.104,28.016 53.2,28.167 53.175,28.352 C53.151,28.537 52.952,28.721 52.589,28.906 C52.0838525,29.1566497 51.5201542,29.2655185 50.958,29.221 C50.589,29.198 50.184,29.1 49.733,28.928 L47.456,30.229 C48.36,30.614 49.355,30.805 50.437,30.805 C51.519,30.805 52.765,30.451 54.17,29.743 C54.972,29.34 55.519,28.947 55.814,28.565 C56.116,28.187 56.186,27.808 56.032,27.435 L56.032,27.435 Z" id="Shape" fill="#7E8B8C" fill-rule="nonzero"></path>
            <path d="M64.223,32.245 L27.79,50.593 L30.456,51.936 L66.891,33.587 L64.223,32.245 L64.223,32.245 Z M34.01,53.725 L42.008,57.751 L52.67,52.382 L44.672,48.355 L34.01,53.725 Z M51.782,47.459 L73.107,36.72 L70.441,35.377 L49.116,46.117 L51.782,47.459 L51.782,47.459 Z M75.773,38.062 L54.447,48.802 L57.113,50.146 L78.439,39.406 L75.773,38.062 Z" id="Shape" fill="#BDC2C6" fill-rule="nonzero"></path>
            <path d="M42.028,72.029 L0,49.597 L0,51.889 L41.123,73.835 C41.2616539,73.909554 41.4165734,73.9487133 41.574,73.949 C41.928,73.949 42.271,73.749 42.447,73.4 C42.6982271,72.9046382 42.513223,72.2992906 42.028,72.029 L42.028,72.029 Z" id="Path" fill="#7E8B8C" fill-rule="nonzero"></path>
        </g>
    </g>
</svg>